<svg width="40" height="40" viewBox="0 0 40 40" fill="none" xmlns="http://www.w3.org/2000/svg">
<g clip-path="url(#clip0_7_401)">
<rect width="40" height="40" rx="4" fill="#F4F4F4"/>
<path d="M4 0C1.79086 0 0 1.79086 0 4V36C0 38.2091 1.79086 40 4 40H36C38.2091 40 40 38.2091 40 36V4C40 1.79086 38.2091 0 36 0H4ZM16.5234 12.3047C17.7734 12.5703 18.8437 13.3281 19.3124 14.2734C19.7499 15.1641 19.7109 16.5703 19.2187 17.5625C18.9609 18.0703 18.4062 18.6719 17.914 18.9609L17.5859 19.1484L18.2187 19.4766C19.3203 20.0391 20.039 20.9219 20.2343 21.9453C20.4374 23.0078 20.2734 24.4297 19.8671 25.1719C19.5312 25.7812 18.7187 26.4922 17.8749 26.9062C16.6484 27.5078 16.5546 27.5156 11.7421 27.5547L7.49995 27.5938V19.8906V12.1875H11.7421C15.1718 12.1875 16.0781 12.2109 16.5234 12.3047ZM29.9999 13.9844V14.7656H26.8749H23.7499V13.9844V13.2031H26.8749H29.9999V13.9844ZM27.6015 16.0937C29.1093 16.3125 30.4843 17.1562 31.3749 18.3984C32.0859 19.4062 32.414 20.3906 32.4765 21.7734L32.5234 22.7344H28.4921C25.9453 22.7344 24.4453 22.7656 24.414 22.8125C24.3437 22.9297 24.5312 23.8281 24.6953 24.1562C24.9374 24.6328 25.3671 25.0547 25.8437 25.2891C26.2421 25.4844 26.3671 25.5078 27.1093 25.5078C27.8515 25.5078 27.9687 25.4844 28.3359 25.2969C28.8359 25.0312 29.2343 24.6875 29.4531 24.3281L29.6249 24.0625H30.914H32.2109L32.1562 24.3125C32.039 24.8906 31.5468 25.7188 30.9843 26.2969C30.0546 27.2344 28.8906 27.7109 27.2968 27.7891C26.7734 27.8125 26.2187 27.7969 25.8906 27.7422C24.1874 27.4453 22.6718 26.2969 21.914 24.7344C20.1171 21.0234 22.2343 16.6797 26.1328 16.0937C26.6953 16.0078 26.9999 16.0078 27.6015 16.0937Z" fill="#393939"/>
<path d="M10.8594 16.6094V18.3672L12.9141 18.3438C14.9375 18.3203 14.9688 18.3203 15.3984 18.1172C16.1172 17.7812 16.4844 17.1016 16.3672 16.3359C16.2969 15.875 16.1641 15.625 15.8281 15.3281C15.3438 14.9062 14.9688 14.8438 12.7969 14.8438H10.8594V16.6094Z" fill="#393939"/>
<path d="M10.9141 20.75C10.8828 20.7812 10.8594 21.7344 10.8594 22.8672V24.9297L13.1094 24.9062C15.2734 24.8828 15.3672 24.875 15.7578 24.6953C16.2422 24.4844 16.7344 23.9766 16.875 23.5625C17.0156 23.1328 16.9453 22.2187 16.75 21.8359C16.6641 21.6641 16.4375 21.4062 16.2578 21.2734C15.6562 20.8125 15.3437 20.7578 13.0469 20.7187C11.9062 20.7031 10.9531 20.7187 10.9141 20.75Z" fill="#393939"/>
<path d="M26.3672 18.4297C25.4297 18.6719 24.6328 19.5391 24.4844 20.4609L24.4297 20.7812H26.9062H29.375L29.3281 20.5625C29.1016 19.6406 28.625 18.9687 27.9453 18.6406C27.5078 18.4219 26.7656 18.3281 26.3672 18.4297Z" fill="#393939"/>
</g>
<defs>
<clipPath id="clip0_7_401">
<rect width="40" height="40" fill="white"/>
</clipPath>
</defs>
</svg>
