<svg width="20" height="21" viewBox="0 0 20 21" fill="none" xmlns="http://www.w3.org/2000/svg">
<g clip-path="url(#clip0_1543_8589)">
<path d="M5.55664 4.38849H14.4172C16.5144 4.38849 18.2145 6.12936 18.2145 8.27685V8.53607C18.2145 10.6836 16.5144 12.4245 14.4172 12.4245H5.55664V4.38849Z" fill="#464646"/>
<path d="M5.55664 12.4244H14.2906L18.974 20.4604H5.55664V12.4244Z" fill="#464646"/>
<path d="M9.60742 4.52238L12.1832 1.336L16.9186 5.34971L14.3428 8.53606L9.60742 4.52238Z" fill="#464646"/>
<path d="M1 0.5H9.86052C11.9577 0.5 13.6579 2.24088 13.6579 4.38837V4.64761C13.6579 6.7951 11.9577 8.53596 9.86052 8.53596H1V0.5Z" fill="#202020"/>
<path d="M1 8.53595H9.86052C11.9577 8.53595 13.6579 10.2769 13.6579 12.4243V12.6836C13.6579 14.831 11.9577 16.5719 9.86052 16.5719H1V8.53595Z" fill="#202020"/>
<path d="M1 16.5719H5.55683V20.4603L1 16.5719Z" fill="#626262"/>
<path opacity="0.8" d="M5.55683 16.5719H1V0.5L5.55683 4.38837V16.5719Z" fill="#4D4D4D"/>
</g>
<defs>
<clipPath id="clip0_1543_8589">
<rect width="20" height="20" fill="white" transform="translate(0 0.5)"/>
</clipPath>
</defs>
</svg>
