<svg width="17" height="16" viewBox="0 0 17 16" fill="none" xmlns="http://www.w3.org/2000/svg">
<path d="M6.9875 2.39687C6.99688 2.48125 7.10625 4.09375 7.23438 5.98438C7.3625 7.875 7.475 9.5125 7.48438 9.625L7.50312 9.82812L6.2375 8.5625L4.96875 7.29688L4.625 7.64062C4.4375 7.82812 4.28125 7.99687 4.28125 8.01562C4.28125 8.03125 5.23125 8.99688 6.39062 10.1562L8.5 12.2656L10.6094 10.1562C11.7688 8.99688 12.7188 8.03125 12.7188 8.01562C12.7188 7.99687 12.5625 7.82812 12.375 7.64062L12.0312 7.29688L10.7625 8.5625L9.49688 9.82812L9.51562 9.64062C9.525 9.5375 9.6375 7.90625 9.76562 6.01562C9.89375 4.125 10.0062 2.50313 10.0156 2.4125L10.0312 2.25H8.50313H6.97187L6.9875 2.39687Z" fill="#F0F0F0"/>
<path d="M6 13.75V14.25H8.5H11V13.75V13.25H8.5H6V13.75Z" fill="#F0F0F0"/>
</svg>
