<svg width="20" height="21" viewBox="0 0 20 21" fill="none" xmlns="http://www.w3.org/2000/svg">
<path d="M2.99617 1.57462C2.57821 1.7249 2.29174 1.99728 2.08041 2.45751L1.9724 2.68762L1.94892 7.38382L1.92544 12.08L0.96272 14.8508L0 17.6215V18.0442C0 18.3635 0.023481 18.5044 0.0892277 18.6312C0.267683 18.9646 0.4931 19.1901 0.812442 19.345L1.12709 19.5H9.97941H18.8317L19.1511 19.345C19.5221 19.1619 19.7898 18.8613 19.9119 18.4856C20.0715 18.0113 20.0387 17.8704 19.0337 14.9447L18.1132 12.2679L18.0616 7.64211C18.0287 5.09677 17.9864 2.90834 17.9629 2.77215C17.8784 2.27905 17.5638 1.86109 17.127 1.64507L16.8593 1.51357L10.0499 1.50418C3.60668 1.49479 3.22629 1.49479 2.99617 1.57462ZM16.6715 2.54204C16.9908 2.67823 16.9814 2.5937 17.0237 5.78241C17.0472 7.36034 17.0754 9.29047 17.0895 10.07L17.1176 11.493H10.0499H2.98208V7.19597C2.98208 2.44342 2.968 2.68293 3.27794 2.54674C3.50336 2.44812 16.432 2.44342 16.6715 2.54204ZM12.0739 16.6776C12.304 16.9077 12.2852 17.213 12.027 17.4196C11.9377 17.4947 11.764 17.5041 10.1203 17.5041C8.11033 17.5041 8.15729 17.5135 8.0211 17.1895C7.93187 16.9688 8.00701 16.7339 8.21364 16.6071C8.34983 16.5226 8.46724 16.5179 10.1344 16.5179H11.9142L12.0739 16.6776Z" fill="#444444"/>
<path d="M10.7493 4.01199C10.6929 4.02138 10.599 4.08244 10.5427 4.14349C10.4722 4.21862 10.1012 5.18134 9.5001 6.85319C8.75341 8.92421 8.57026 9.47836 8.59374 9.60046C8.65479 9.94329 9.1291 10.1123 9.39209 9.88223C9.48601 9.8024 9.71143 9.22946 10.4487 7.17253C10.9653 5.74019 11.388 4.52857 11.388 4.48161C11.388 4.32194 11.2424 4.11061 11.0827 4.04487C10.9935 4.0073 10.9043 3.98381 10.8855 3.98381C10.8667 3.98851 10.8009 4.0026 10.7493 4.01199Z" fill="#202020"/>
<path d="M7.42471 4.9418C6.84238 5.33628 5.12358 6.64183 5.06253 6.73105C4.9733 6.87194 4.9733 7.13493 5.06253 7.26642C5.12358 7.35565 5.64016 7.75013 7.01614 8.75511C7.45759 9.07915 7.57969 9.1449 7.72527 9.1449C7.94129 9.1449 8.12445 9.00871 8.19489 8.79738C8.29351 8.49213 8.20428 8.38411 7.21808 7.6656C6.52774 7.15841 6.33519 6.99404 6.37746 6.95177C6.41033 6.9189 6.80481 6.62304 7.25565 6.28961C8.1808 5.61336 8.29351 5.47717 8.19489 5.17192C8.13384 4.98407 7.91312 4.8244 7.72057 4.8244C7.65483 4.8244 7.51864 4.87606 7.42471 4.9418Z" fill="#202020"/>
<path d="M11.9708 4.91364C11.8815 4.97 11.797 5.07331 11.7688 5.16724C11.6608 5.48658 11.7547 5.59459 12.755 6.33659C13.5769 6.9424 13.6473 7.00814 13.5675 7.0645C12.6517 7.72196 11.8487 8.34656 11.8064 8.43109C11.6326 8.74574 11.8628 9.1543 12.2197 9.1637C12.3699 9.1637 12.4639 9.12143 12.7832 8.88662C14.8214 7.38853 14.873 7.34627 14.9435 7.1866C14.9951 7.05511 14.9998 6.98936 14.9528 6.85787C14.9106 6.71698 14.718 6.55731 13.7131 5.81061C13.0603 5.32221 12.4826 4.90425 12.431 4.87607C12.2901 4.80093 12.1351 4.81502 11.9708 4.91364Z" fill="#202020"/>
</svg>
