<svg width="40" height="40" viewBox="0 0 40 40" fill="none" xmlns="http://www.w3.org/2000/svg">
<g clip-path="url(#clip0_7_399)">
<rect width="40" height="40" rx="4" fill="#F4F4F4"/>
<path d="M4 0C1.79086 0 0 1.79086 0 4V36C0 38.2091 1.79086 40 4 40H36C38.2091 40 40 38.2091 40 36V4C40 1.79086 38.2091 0 36 0H4ZM22.3047 8.24219C25.9453 8.92188 29.1328 11.1875 30.9375 14.375C33.3906 18.7187 32.8906 24.2266 29.6953 28.0234C28.3515 29.625 26.6875 30.8438 24.7968 31.6172C23.8593 32 23.5078 32.0312 23.25 31.7734L23.0468 31.5703V29.4297C23.0468 27.0469 23.0078 26.7891 22.5468 26.1094L22.2812 25.7188L22.6875 25.6641C24.9609 25.3594 26.5 24.4297 27.2578 22.8828C27.6484 22.0859 27.789 21.5469 27.8906 20.4922C27.9765 19.5547 27.8906 18.6484 27.6406 17.9844C27.4843 17.5469 26.8906 16.5469 26.7343 16.4531C26.6797 16.4219 26.6953 16.25 26.7734 15.9531C27 15.0938 26.7656 13.1797 26.4219 13.1094C25.8984 13 24.6718 13.4141 23.6797 14.0234L23.125 14.3672L22.4375 14.2109C21.1015 13.8984 18.6406 13.9297 17.3359 14.2656L16.8906 14.375L16.289 14.0078C15.25 13.3828 13.8593 12.9453 13.5078 13.1328C13.4375 13.1641 13.3203 13.4141 13.25 13.6719C13.0468 14.3984 13.0156 15.1094 13.1562 15.7812C13.2656 16.2969 13.2656 16.375 13.164 16.5234C12.2265 17.7812 11.9765 18.6406 12.0547 20.2344C12.1484 21.9531 12.6015 23.0938 13.5859 24.0625C14.0234 24.5 14.3359 24.7344 14.7812 24.9453C15.4218 25.2578 16.5234 25.5781 17.2265 25.6641C17.4609 25.6953 17.6562 25.7344 17.6562 25.75C17.6562 25.7656 17.539 25.9297 17.3984 26.1172C17.25 26.3047 17.0937 26.6328 17.039 26.8438C16.9843 27.0547 16.9218 27.2656 16.914 27.3203C16.8672 27.4766 16.0937 27.6562 15.4609 27.6562C14.9297 27.6562 14.7968 27.625 14.3593 27.3984C13.9453 27.1875 13.7812 27.0391 13.3203 26.4219C12.7031 25.6094 12.5 25.4375 11.9453 25.2266C11.5 25.0547 11.1015 25.0391 10.9062 25.1797C10.7109 25.3203 10.8047 25.4844 11.3359 25.8672C11.8906 26.2656 12.2578 26.7344 12.5859 27.4766C13.1875 28.7969 14.1093 29.3828 15.5859 29.3828C15.9765 29.3828 16.4297 29.3594 16.5859 29.3359L16.875 29.2812V30.4375C16.875 31.5156 16.8672 31.6016 16.7031 31.7734C16.3906 32.1016 15.789 31.9609 14.289 31.2109C9.61716 28.8672 6.94529 23.875 7.61716 18.7344C8.30466 13.4531 12.4843 9.13281 17.7343 8.25C18.1406 8.17969 18.5625 8.10937 18.6718 8.09375C19.125 8.01562 21.6328 8.11719 22.3047 8.24219Z" fill="#393939"/>
</g>
<defs>
<clipPath id="clip0_7_399">
<rect width="40" height="40" fill="white"/>
</clipPath>
</defs>
</svg>
