<svg width="1440" height="900" viewBox="0 0 1440 900" fill="none" xmlns="http://www.w3.org/2000/svg">
<g clip-path="url(#clip0_1528_5837)">
<path d="M56.5 52.9998V52.7927L56.3536 52.6463L28.5 24.7929L28.5 -32.5H409.5V109.793L381.646 137.646L381.5 137.793V138V185V185.207L381.646 185.354L409.5 213.207V355.793L381.793 383.5L118.207 383.5L90.354 355.646L90.2075 355.5H90.0004L56.2071 355.5L28.5 327.793V183.207L56.3536 155.354L56.5 155.208V155L56.5 52.9998Z" stroke="#0F0F0F"/>
<mask id="path-2-inside-1_1528_5837" fill="white">
<path fill-rule="evenodd" clip-rule="evenodd" d="M493 791H696L724 819V969H625V920L597 892H519L491 920L462 948V969H173V819L201 791H363L391 819H465L493 791Z"/>
</mask>
<path d="M696 791L696.707 790.293L696.414 790H696V791ZM493 791V790H492.586L492.293 790.293L493 791ZM724 819H725V818.586L724.707 818.293L724 819ZM724 969V970H725V969H724ZM625 969H624V970H625V969ZM625 920H626V919.586L625.707 919.293L625 920ZM597 892L597.707 891.293L597.414 891H597V892ZM519 892V891H518.586L518.293 891.293L519 892ZM491 920L491.695 920.719L491.701 920.713L491.707 920.707L491 920ZM462 948L461.305 947.281L461 947.575V948H462ZM462 969V970H463V969H462ZM173 969H172V970H173V969ZM173 819L172.293 818.293L172 818.586V819H173ZM201 791V790H200.586L200.293 790.293L201 791ZM363 791L363.707 790.293L363.414 790H363V791ZM391 819L390.293 819.707L390.586 820H391V819ZM465 819V820H465.414L465.707 819.707L465 819ZM696 790H493V792H696V790ZM724.707 818.293L696.707 790.293L695.293 791.707L723.293 819.707L724.707 818.293ZM725 969V819H723V969H725ZM625 970H724V968H625V970ZM624 920V969H626V920H624ZM596.293 892.707L624.293 920.707L625.707 919.293L597.707 891.293L596.293 892.707ZM519 893H597V891H519V893ZM491.707 920.707L519.707 892.707L518.293 891.293L490.293 919.293L491.707 920.707ZM462.695 948.719L491.695 920.719L490.305 919.281L461.305 947.281L462.695 948.719ZM463 969V948H461V969H463ZM173 970H462V968H173V970ZM172 819V969H174V819H172ZM200.293 790.293L172.293 818.293L173.707 819.707L201.707 791.707L200.293 790.293ZM363 790H201V792H363V790ZM391.707 818.293L363.707 790.293L362.293 791.707L390.293 819.707L391.707 818.293ZM465 818H391V820H465V818ZM492.293 790.293L464.293 818.293L465.707 819.707L493.707 791.707L492.293 790.293Z" fill="#0F0F0F" mask="url(#path-2-inside-1_1528_5837)"/>
<mask id="path-4-inside-2_1528_5837" fill="white">
<path fill-rule="evenodd" clip-rule="evenodd" d="M78 734L106 706L106 698L106 631L78 603L29 603L0.999985 575L-15.5 575L-25 575L-25 924L106 924L106 861L78 833L78 734Z"/>
</mask>
<path d="M106 706L106.707 706.707L107 706.414L107 706L106 706ZM78 734L77.2929 733.293L77 733.586L77 734L78 734ZM106 698L105 698L106 698ZM106 631L107 631L107 630.586L106.707 630.293L106 631ZM78 603L78.7071 602.293L78.4142 602L78 602L78 603ZM29 603L28.2929 603.707L28.5858 604L29 604L29 603ZM0.999985 575L1.70709 574.293L1.4142 574L0.999985 574L0.999985 575ZM-15.5 575L-15.5 576L-15.5 575ZM-25 575L-25 574L-26 574L-26 575L-25 575ZM-25 924L-26 924L-26 925L-25 925L-25 924ZM106 924L106 925L107 925L107 924L106 924ZM106 861L107 861L107 860.586L106.707 860.293L106 861ZM78 833L77 833L77 833.414L77.2929 833.707L78 833ZM105.293 705.293L77.2929 733.293L78.7071 734.707L106.707 706.707L105.293 705.293ZM105 698L105 706L107 706L107 698L105 698ZM105 631L105 698L107 698L107 631L105 631ZM77.2929 603.707L105.293 631.707L106.707 630.293L78.7071 602.293L77.2929 603.707ZM29 604L78 604L78 602L29 602L29 604ZM0.292877 575.707L28.2929 603.707L29.7071 602.293L1.70709 574.293L0.292877 575.707ZM-15.5 576L0.999985 576L0.999985 574L-15.5 574L-15.5 576ZM-25 576L-15.5 576L-15.5 574L-25 574L-25 576ZM-24 924L-24 575L-26 575L-26 924L-24 924ZM106 923L-25 923L-25 925L106 925L106 923ZM105 861L105 924L107 924L107 861L105 861ZM106.707 860.293L78.7071 832.293L77.2929 833.707L105.293 861.707L106.707 860.293ZM77 734L77 833L79 833L79 734L77 734Z" fill="#0F0F0F" mask="url(#path-4-inside-2_1528_5837)"/>
<path d="M996 1173H906.5V882.207L934.207 854.5L1080 854.5H1080.21L1080.35 854.354L1108.21 826.5H1161.79L1189.5 854.207V1434.79L1161.65 1462.65L1161.5 1462.79V1463V1565V1565.21L1161.65 1565.35L1189.5 1593.21V1638.5H996.5V1593.21L1024.35 1565.35L1024.5 1565.21V1565L1024.5 1493V1492.79L1024.35 1492.65L996.5 1464.79L996.5 1173.5V1173H996Z" stroke="#0F0F0F"/>
<mask id="path-7-inside-3_1528_5837" fill="white">
<path fill-rule="evenodd" clip-rule="evenodd" d="M1358.47 -191L1598.89 49.4163L1573.43 74.8726L1533.83 74.8725L1498.83 109.874L1498.83 109.878L1496.36 112.353L1419.28 35.272H1379.68L1366.24 48.7135L1327.35 87.5979L1345.74 105.983H1385.34L1417.86 73.4557L1421.82 77.413L1476.56 132.152L1474.44 134.273L1349.99 258.724L1349.99 298.314L1313.21 335.088H1273.62L1222.71 284.176V244.578L1092.6 114.468L1092.6 75.3693L1109.57 58.6087L1120.85 47.2949L1159.77 47.2948L1217.05 -9.9808L1217.05 -49.1768L1358.47 -191Z"/>
</mask>
<path d="M1598.89 49.4163L1599.59 50.1234L1600.3 49.4163L1599.59 48.7092L1598.89 49.4163ZM1358.47 -191L1359.18 -191.707L1358.47 -192.415L1357.76 -191.706L1358.47 -191ZM1573.43 74.8726L1573.43 75.8726L1573.84 75.8726L1574.14 75.5797L1573.43 74.8726ZM1533.83 74.8725L1533.83 73.8726L1533.42 73.8725L1533.13 74.1654L1533.83 74.8725ZM1498.83 109.874L1498.12 109.167L1497.42 109.874L1498.12 110.582L1498.83 109.874ZM1498.83 109.878L1499.54 110.585L1500.25 109.878L1499.54 109.171L1498.83 109.878ZM1496.36 112.353L1495.65 113.06L1496.36 113.767L1497.07 113.06L1496.36 112.353ZM1419.28 35.272L1419.99 34.5649L1419.69 34.272H1419.28V35.272ZM1379.68 35.272V34.272H1379.27L1378.97 34.5649L1379.68 35.272ZM1366.24 48.7135L1365.53 48.0064L1366.24 48.7135ZM1327.35 87.5979L1326.65 86.8908L1325.94 87.5979L1326.65 88.305L1327.35 87.5979ZM1345.74 105.983L1345.03 106.69L1345.33 106.983H1345.74V105.983ZM1385.34 105.983V106.983H1385.75L1386.04 106.69L1385.34 105.983ZM1417.86 73.4557L1418.57 72.7486L1417.86 72.0415L1417.16 72.7486L1417.86 73.4557ZM1476.56 132.152L1477.27 132.859L1477.97 132.152L1477.27 131.445L1476.56 132.152ZM1349.99 258.724L1349.28 258.017L1348.99 258.31V258.724L1349.99 258.724ZM1349.99 298.314L1350.7 299.021L1350.99 298.728V298.314L1349.99 298.314ZM1313.21 335.088V336.088L1313.63 336.088L1313.92 335.795L1313.21 335.088ZM1273.62 335.088L1272.91 335.795L1273.2 336.088L1273.62 336.088V335.088ZM1222.71 284.176L1221.71 284.176L1221.71 284.59L1222 284.883L1222.71 284.176ZM1222.71 244.578L1223.71 244.578L1223.71 244.164L1223.41 243.871L1222.71 244.578ZM1092.6 114.468L1091.6 114.468L1091.6 114.882L1091.89 115.175L1092.6 114.468ZM1092.6 75.3693L1091.89 74.6578L1091.6 74.9514L1091.6 75.3693L1092.6 75.3693ZM1109.57 58.6087L1110.27 59.3202L1110.28 59.3148L1109.57 58.6087ZM1120.85 47.2949L1120.85 46.2949L1120.43 46.2949L1120.14 46.5888L1120.85 47.2949ZM1159.77 47.2948L1159.77 48.2948L1160.19 48.2948L1160.48 48.0019L1159.77 47.2948ZM1217.05 -9.9808L1217.76 -9.27369L1218.05 -9.56658V-9.9808H1217.05ZM1217.05 -49.1768L1216.34 -49.8829L1216.05 -49.5901L1216.05 -49.1768L1217.05 -49.1768ZM1599.59 48.7092L1359.18 -191.707L1357.76 -190.293L1598.18 50.1234L1599.59 48.7092ZM1574.14 75.5797L1599.59 50.1234L1598.18 48.7092L1572.72 74.1655L1574.14 75.5797ZM1533.83 75.8725L1573.43 75.8726L1573.43 73.8726L1533.83 73.8726L1533.83 75.8725ZM1499.54 110.582L1534.54 75.5797L1533.13 74.1654L1498.12 109.167L1499.54 110.582ZM1499.54 109.171L1499.54 109.167L1498.12 110.582L1498.13 110.585L1499.54 109.171ZM1497.07 113.06L1499.54 110.585L1498.13 109.171L1495.65 111.646L1497.07 113.06ZM1418.57 35.9791L1495.65 113.06L1497.07 111.646L1419.99 34.5649L1418.57 35.9791ZM1379.68 36.272H1419.28V34.272H1379.68V36.272ZM1366.95 49.4206L1380.39 35.9791L1378.97 34.5649L1365.53 48.0064L1366.95 49.4206ZM1328.06 88.305L1366.95 49.4206L1365.53 48.0064L1326.65 86.8908L1328.06 88.305ZM1346.45 105.276L1328.06 86.8908L1326.65 88.305L1345.03 106.69L1346.45 105.276ZM1385.34 104.983H1345.74V106.983H1385.34V104.983ZM1417.16 72.7486L1384.63 105.276L1386.04 106.69L1418.57 74.1628L1417.16 72.7486ZM1422.53 76.7058L1418.57 72.7486L1417.16 74.1628L1421.11 78.1201L1422.53 76.7058ZM1477.27 131.445L1422.53 76.7058L1421.11 78.1201L1475.85 132.859L1477.27 131.445ZM1475.15 134.98L1477.27 132.859L1475.85 131.445L1473.73 133.566L1475.15 134.98ZM1350.7 259.431L1475.15 134.98L1473.73 133.566L1349.28 258.017L1350.7 259.431ZM1350.99 298.314L1350.99 258.724L1348.99 258.724L1348.99 298.314L1350.99 298.314ZM1313.92 335.795L1350.7 299.021L1349.28 297.607L1312.51 334.381L1313.92 335.795ZM1273.62 336.088H1313.21V334.088H1273.62V336.088ZM1222 284.883L1272.91 335.795L1274.32 334.381L1223.41 283.469L1222 284.883ZM1221.71 244.578V284.176L1223.71 284.176V244.578L1221.71 244.578ZM1223.41 243.871L1093.3 113.761L1091.89 115.175L1222 245.285L1223.41 243.871ZM1091.6 75.3693L1091.6 114.468L1093.6 114.468L1093.6 75.3693L1091.6 75.3693ZM1108.87 57.8972L1091.89 74.6578L1093.3 76.0808L1110.27 59.3202L1108.87 57.8972ZM1120.14 46.5888L1108.86 57.9026L1110.28 59.3148L1121.56 48.001L1120.14 46.5888ZM1159.77 46.2949L1120.85 46.2949L1120.85 48.2949L1159.77 48.2948L1159.77 46.2949ZM1216.34 -10.6879L1159.07 46.5877L1160.48 48.0019L1217.76 -9.27369L1216.34 -10.6879ZM1216.05 -49.1768L1216.05 -9.9808H1218.05L1218.05 -49.1768L1216.05 -49.1768ZM1357.76 -191.706L1216.34 -49.8829L1217.76 -48.4707L1359.18 -190.294L1357.76 -191.706Z" fill="#0F0F0F" mask="url(#path-7-inside-3_1528_5837)"/>
<path d="M1351.65 788.354L1351.79 788.5H1352H1548.5V1106.5H1258.5L1258.5 882V881.793L1258.35 881.646L1230.5 853.793V788.207L1258.21 760.5H1323.79L1351.65 788.354Z" stroke="#0F0F0F"/>
<path d="M1383.5 674.5L1510.5 674.5L1510.5 743.5L1411.21 743.5L1383.5 715.793L1383.5 674.5Z" stroke="#0F0F0F"/>
</g>
<defs>
<clipPath id="clip0_1528_5837">
<rect width="1440" height="900" fill="white"/>
</clipPath>
</defs>
</svg>
