<svg width="106" height="36" viewBox="0 0 106 36" fill="none" xmlns="http://www.w3.org/2000/svg">
<path d="M13.1556 0H8.56189L8.29166 1.84615H12.8854L13.1556 0Z" fill="#D9D9D9"/>
<path d="M8.10863 3.07692L7.8384 4.92308H12.4321L12.7023 3.07692H8.10863Z" fill="#D9D9D9"/>
<path d="M0.779395 6.15385H19.1788L18.9986 7.38462L15.0444 11.3846H11.4865L8.91033 28.9855C8.44342 32.1755 6.29202 34.8605 3.28992 36L6.89282 11.3846H0L0.779395 6.15385Z" fill="#D9D9D9"/>
<path d="M25.1866 13.2308L26.9844 15.3484L27.2943 13.2308H31.888L29.5912 28.9231H24.9975L25.6283 24.6132L20.71 28.9231H11.2163L11.982 23.6923H20.0975L22.9073 21.2308H26.1234L23.7725 18.4615H20.0435L16.9439 21.1765L16.9359 21.2308H12.3422L12.6481 19.1411L17.8717 14.4684L17.8727 14.4615L18.1957 14.1787L19.2553 13.2308L19.2447 13.2598L19.2778 13.2308H25.1866Z" fill="#D9D9D9"/>
<path d="M91.0559 21.1765L91.0479 21.2308H86.4542L86.7601 19.1411L91.9836 14.4685L91.9847 14.4615L92.3084 14.178L93.3673 13.2308L93.3567 13.2598L93.3898 13.2308H99.2986L101.096 15.3484L101.406 13.2308H106L103.703 28.9231H99.1094L99.7402 24.6132L94.822 28.9231H85.3283L86.0939 23.6923H94.2095L97.0193 21.2308H100.235L97.8844 18.4615H94.1554L91.0559 21.1765Z" fill="#D9D9D9"/>
<path fill-rule="evenodd" clip-rule="evenodd" d="M35.2208 6.15385H39.8144L38.5985 14.4615L40.0036 13.2308H47.3536L51.7941 18.4615L50.7583 25.5385L46.8942 28.9231H40.7692L37.1123 24.6154L36.4818 28.9231H31.888L35.2208 6.15385ZM46.4348 23.6923H42.1699L40.0802 21.2308H37.6077L40.7692 18.4615H45.9754L47.0203 19.6923L46.4348 23.6923Z" fill="#D9D9D9"/>
<path d="M76.5642 6.15385H81.1579L78.5911 23.6923H79.8172L83.2118 27.691L83.0314 28.9231H77.8255L77.8252 28.9228L73.9068 24.3114L76.5642 6.15385Z" fill="#D9D9D9"/>
<path d="M59.4503 13.2308H54.8566L53.2348 24.3114L57.1535 28.9231H67.5659L71.43 25.5385L73.2315 13.2308H68.6378L67.1066 23.6923H57.9191L59.4503 13.2308Z" fill="#D9D9D9"/>
</svg>
