<svg width="20" height="21" viewBox="0 0 20 21" fill="none" xmlns="http://www.w3.org/2000/svg">
<path d="M5.4099 1.99998C4.8499 2.12997 4.2799 2.60997 3.9799 3.18997L3.6999 3.71997V8.18997C3.6999 12.82 3.6399 13.57 3.2699 14.14C3.0699 14.45 2.7399 14.48 2.0999 14.25C1.1199 13.9 0.399902 14.2 0.399902 14.95C0.399902 15.14 0.419902 15.3 0.439902 15.3C0.459902 15.3 0.639902 15.23 0.829902 15.15C1.2799 14.97 1.5499 15.05 2.1999 15.6C2.7299 16.04 3.0699 16.2 3.5099 16.2C3.9099 16.2 4.4899 15.95 4.8199 15.63C4.9699 15.48 5.1199 15.38 5.1399 15.41C5.1599 15.43 5.2099 15.93 5.2399 16.51L5.3099 17.58L5.0199 17.91C4.6099 18.38 4.4999 18.63 4.4999 19.04C4.4999 19.35 4.5299 19.4 4.7299 19.4C4.8499 19.4 5.1099 19.3 5.2999 19.17C5.4899 19.04 5.8099 18.88 5.9999 18.8C6.9399 18.44 7.3799 17.88 7.5999 16.75C7.7499 15.96 7.8899 15.61 8.1099 15.5C8.3699 15.36 8.3699 15.36 8.4499 15.77C8.5499 16.33 8.7399 16.63 9.2599 17.05C9.7699 17.47 9.9999 17.9 9.9999 18.45C9.9999 19.2 10.4399 19.81 11.0199 19.83L11.3499 19.85L11.3199 19.38C11.2999 19.07 11.3599 18.66 11.4999 18.25C11.7299 17.55 11.7299 17.1 11.4999 16.29C11.3699 15.85 11.4199 15.3 11.5899 15.3C11.6399 15.3 11.7299 15.44 11.7999 15.61C11.8699 15.78 12.1199 16.04 12.3399 16.18C13.0099 16.6 13.3999 17.01 13.3999 17.29C13.3999 18.12 13.9799 18.88 14.6599 18.97C14.9099 19 15.1199 18.96 15.2399 18.87C15.4299 18.73 15.4299 18.71 15.2699 18.56C14.9599 18.25 14.8499 17.65 14.9799 17.01C15.1399 16.26 15.1299 15.71 14.9499 15.4C14.6399 14.86 14.8499 14.74 15.4099 15.15C16.7099 16.1 17.1099 16.23 18.0299 15.96C19.0199 15.67 19.4099 14.98 19.3899 13.59C19.3799 13.18 19.4099 12.7 19.4499 12.51C19.5199 12.19 19.5099 12.18 19.2899 12.25C18.9599 12.34 18.4199 12.96 18.3499 13.34C18.2299 13.88 18.0299 14.1 17.6499 14.1C17.2499 14.1 16.9599 13.83 16.7799 13.31C16.6999 13.06 16.6499 11.42 16.6099 8.17997L16.5499 3.41998L16.2499 2.98997C16.0799 2.74998 15.7199 2.41998 15.4499 2.24998L14.9699 1.94997L10.3599 1.92997C7.8199 1.91997 5.5999 1.94997 5.4099 1.99998ZM7.4799 4.30997C7.6999 4.38997 8.0899 4.80997 8.9199 5.90998C9.5399 6.72997 10.0799 7.39997 10.1099 7.39997C10.1399 7.39997 10.6799 6.72997 11.2999 5.89997C12.0299 4.94997 12.5399 4.36997 12.7199 4.28997C12.8799 4.22997 13.2299 4.19997 13.5199 4.21997C14.4299 4.30997 14.3999 4.16997 14.3999 8.21997V11.71L14.1399 11.97C13.9099 12.2 13.8299 12.22 13.2399 12.18C12.2499 12.12 12.2599 12.13 12.2199 9.98997L12.1899 8.18997L11.5199 9.11998C10.9599 9.87998 10.7699 10.07 10.4399 10.19C9.8299 10.4 9.4899 10.19 8.6799 9.07998L7.9999 8.15998V9.93997C7.9999 11.69 7.9999 11.71 7.7499 11.95C7.5499 12.16 7.4099 12.2 6.9199 12.2C6.4799 12.2 6.2599 12.15 6.0899 12.01L5.8499 11.82L5.8199 8.38997C5.7899 4.77997 5.8199 4.51997 6.2299 4.31997C6.5199 4.17997 7.0999 4.16997 7.4799 4.30997Z" fill="#444444"/>
</svg>
