<svg width="20" height="21" viewBox="0 0 20 21" fill="none" xmlns="http://www.w3.org/2000/svg">
<g clip-path="url(#clip0_1543_9271)">
<circle cx="10" cy="10.5" r="10" fill="#202020" fill-opacity="0.5"/>
<path d="M9.25685 4.32861C8.97114 5.07147 9.37114 5.70004 10.0569 5.58576C10.9997 5.47147 10.9997 4.10004 10.0569 3.98576C9.68542 3.92861 9.34257 4.07147 9.25685 4.32861ZM10.5711 4.78576C10.5711 5.15718 10.3711 5.35718 9.99971 5.35718C9.62828 5.35718 9.42828 5.15718 9.42828 4.78576C9.42828 4.41433 9.62828 4.21433 9.99971 4.21433C10.3711 4.21433 10.5711 4.41433 10.5711 4.78576Z" fill="#626262"/>
<path d="M4.48582 4.70011C4.37154 4.78582 4.28582 5.30011 4.28582 5.84297C4.28582 6.84297 4.02868 6.98582 3.14296 6.44297C2.68582 6.15725 2.48582 6.15725 2.11439 6.52868C1.71439 6.95725 1.71439 7.04297 2.14296 7.47154C2.60011 7.90011 2.68582 7.90011 3.11439 7.50011C3.40011 7.27154 3.82868 7.07154 4.08582 7.07154C4.45725 7.07154 4.57153 6.8144 4.57153 5.92868V4.8144L6.37153 4.70011L8.14296 4.6144L6.40011 4.55725C5.45725 4.52868 4.57153 4.58582 4.48582 4.70011ZM3.00011 6.78582C3.31439 7.27154 2.85725 7.70011 2.40011 7.32868C2.20011 7.15725 2.08582 6.90011 2.17153 6.75725C2.37153 6.4144 2.77153 6.44297 3.00011 6.78582Z" fill="#626262"/>
<path d="M15.3715 5.92868C15.4287 6.55725 15.543 7.07153 15.6001 7.07153C15.6573 7.07153 15.7144 6.55725 15.7144 5.92868C15.7144 5.3001 15.6287 4.78582 15.4858 4.78582C15.3715 4.78582 15.3144 5.3001 15.3715 5.92868Z" fill="#626262"/>
<path d="M16.6001 6.7572C16.3429 7.24291 16.3715 7.38577 16.8858 7.67148C17.6001 8.04291 18.1143 7.67148 17.9429 6.90005C17.8001 6.1572 16.9429 6.07148 16.6001 6.7572ZM17.7143 6.90005C17.7143 7.12862 17.6001 7.38577 17.4572 7.50005C17.1143 7.70005 16.7715 7.1572 17.0001 6.78577C17.2572 6.3572 17.7143 6.44291 17.7143 6.90005Z" fill="#626262"/>
<path d="M5.05706 7.24291C4.94277 7.35719 4.85706 8.07148 4.85706 8.84291V10.2143H3.59991C2.88563 10.2143 2.22849 10.0715 2.14277 9.92862C1.65706 9.15719 0.485629 9.84291 0.771343 10.7001C0.942772 11.1286 1.88563 11.1858 2.14277 10.7858C2.22849 10.6143 2.88563 10.5001 3.57134 10.5001H4.82849L4.9142 12.1286L4.99991 13.7858H9.99992H14.9999L15.0856 12.1286L15.1713 10.5001H16.4285C17.1142 10.5001 17.7713 10.6143 17.8571 10.7858C18.0856 11.1286 19.1428 11.1572 19.1428 10.8143C19.1428 10.6715 18.8856 10.6143 18.5713 10.7001C18.1713 10.8143 17.9999 10.7001 17.9999 10.3572C17.9999 9.98577 18.1713 9.90005 18.5999 10.0143C19.0856 10.1572 19.1428 10.1001 18.8856 9.84291C18.6285 9.58577 18.4285 9.58577 17.9999 9.87148C17.6856 10.0429 16.9142 10.2143 16.3142 10.2143H15.1713L15.0856 8.70005L14.9999 7.21434L10.1142 7.12862C7.45706 7.10005 5.17134 7.15719 5.05706 7.24291ZM14.8571 10.5001V13.6429H9.99992H5.14277V10.5001V7.35719H9.99992H14.8571V10.5001ZM1.99991 10.3572C1.99991 10.5858 1.82849 10.7858 1.59991 10.7858C1.1142 10.7858 0.799915 10.3858 1.05706 10.1001C1.39991 9.75719 1.99991 9.92862 1.99991 10.3572Z" fill="#626262"/>
<path d="M5.71436 10.5C5.71436 13.1572 5.74293 13.3572 6.28578 13.3572C6.7715 13.3572 6.85721 13.1572 6.85721 12.2143C6.85721 11.2715 6.94293 11.0715 7.42864 11.0715C8.28578 11.0715 9.40007 10.4715 9.5715 9.87146C10.0286 8.50003 8.9715 7.64289 6.82864 7.64289H5.71436V10.5ZM8.42864 9.35718C8.42864 9.92861 8.25721 10.1 7.65721 10.1572C6.94293 10.2429 6.85721 10.1572 6.85721 9.35718C6.85721 8.55718 6.94293 8.47146 7.65721 8.55718C8.25721 8.61432 8.42864 8.78575 8.42864 9.35718Z" fill="#626262"/>
<path d="M10.2856 10.5C10.2856 12.8429 10.3714 13.3572 10.7142 13.3572C11.0285 13.3572 11.1428 13.0143 11.1428 12.0715V10.7857H12.2856H13.4285V12.0715C13.4285 13.0143 13.5428 13.3572 13.8571 13.3572C14.1999 13.3572 14.2856 12.8429 14.2856 10.5C14.2856 8.15718 14.1999 7.64289 13.8571 7.64289C13.5428 7.64289 13.4285 7.95718 13.4285 8.78575V9.92861H12.2856H11.1428V8.78575C11.1428 7.95718 11.0285 7.64289 10.7142 7.64289C10.3714 7.64289 10.2856 8.15718 10.2856 10.5Z" fill="#626262"/>
<path d="M2.00014 13.2429C1.48586 13.8429 2.37157 14.8144 2.91443 14.2715C3.11443 14.0715 3.48586 13.9286 3.77157 13.9286C4.17157 13.9286 4.28586 14.1572 4.28586 15.0715V16.2144L6.22871 16.1572L8.143 16.1001L6.37157 16.0144L4.57157 15.9001V14.7858C4.57157 13.8715 4.45729 13.6429 4.02871 13.6429C3.743 13.6429 3.343 13.4429 3.143 13.2144C2.68586 12.6715 2.45729 12.6715 2.00014 13.2429ZM3.02871 13.3858C3.31443 13.8715 2.65729 14.4144 2.25729 14.0144C1.91443 13.6715 2.143 13.0715 2.57157 13.0715C2.71443 13.0715 2.91443 13.2144 3.02871 13.3858Z" fill="#626262"/>
<path d="M16.8569 13.2144C16.6569 13.4429 16.2569 13.6429 15.9712 13.6429C15.5426 13.6429 15.4284 13.8715 15.4284 14.7858V15.9001L13.6569 16.0144L11.8569 16.1001L13.7998 16.1572L15.7141 16.2144V15.0715C15.7141 13.8715 15.9426 13.7001 16.8569 14.2715C17.3141 14.5572 17.5141 14.5572 17.8855 14.1572C18.2855 13.7572 18.3141 13.5858 17.9998 13.2429C17.5426 12.6715 17.3141 12.6715 16.8569 13.2144ZM17.8855 13.3858C18.1712 13.8715 17.5141 14.4144 17.1141 14.0144C16.7712 13.6715 16.9998 13.0715 17.4284 13.0715C17.5712 13.0715 17.7712 13.2144 17.8855 13.3858Z" fill="#626262"/>
<path d="M9.34259 15.2429C9.05688 15.5286 9.08545 16.7858 9.39974 16.7858C9.51402 16.7858 9.57117 16.4715 9.48545 16.0715C9.39974 15.5572 9.48545 15.3572 9.82831 15.3572C10.4569 15.3572 10.7712 16.1858 10.2569 16.5572C9.91402 16.7858 9.94259 16.8143 10.2855 16.7001C10.9426 16.5286 10.8283 15.2429 10.1426 15.1286C9.79974 15.0715 9.45688 15.1286 9.34259 15.2429Z" fill="#626262"/>
</g>
<defs>
<clipPath id="clip0_1543_9271">
<rect width="20" height="20" fill="white" transform="translate(0 0.5)"/>
</clipPath>
</defs>
</svg>
