<svg width="17" height="17" viewBox="0 0 17 17" fill="none" xmlns="http://www.w3.org/2000/svg">
<path d="M8.33404 0.122561C8.27143 0.171993 8.14622 0.66304 7.48058 3.44124L6.69961 6.7006L3.43732 7.48166C-0.0754054 8.32533 0.0629943 8.28579 0.0629943 8.5C0.0629943 8.71421 -0.0754054 8.67467 3.43732 9.51834L6.69961 10.2994L7.48058 13.5588C8.32416 17.0752 8.28132 16.9368 8.49881 16.9368C8.71629 16.9368 8.67345 17.0752 9.51703 13.5621L10.298 10.3027L13.557 9.51834C17.073 8.67467 16.9346 8.71751 16.9346 8.5C16.9346 8.2726 17.2576 8.36158 10.7593 6.80606L10.298 6.6973L9.51703 3.43794C8.67345 -0.0751762 8.71629 0.0632381 8.49881 0.0632381C8.44938 0.0632381 8.37359 0.0896034 8.33404 0.122561Z" fill="#383838"/>
</svg>
