<svg width="102" height="32" viewBox="0 0 102 32" fill="none" xmlns="http://www.w3.org/2000/svg">
<g clip-path="url(#clip0_1580_2398)">
<path d="M22.3609 15.3379L20.6371 13.6141L21.5237 9.96953L17.8298 10.8068L16.1553 9.13226L24.4295 7.06371L22.3609 15.3379Z" fill="#BAFFA9"/>
<path d="M19.5044 26.7642L4.729 11.9888L13.0032 9.92028L14.6778 11.5948L8.7676 13.0724L12.1167 16.4214L16.0075 15.4857L15.0225 19.3273L18.3716 22.6763L19.8491 16.7662L21.5729 18.49L19.5044 26.7642Z" fill="#7ACB16"/>
</g>
<path d="M35.7457 13.8497H37.7225L37.393 16.0901H35.4162L35.7457 13.8497Z" fill="#D9D9D9"/>
<path d="M35.7457 13.8497H37.7225L37.393 16.0901H35.4162L35.7457 13.8497Z" fill="#D9D9D9"/>
<path fill-rule="evenodd" clip-rule="evenodd" d="M38.1682 10.8186H36.1914L36.0751 11.6093H38.0519L38.1682 10.8186Z" fill="#D9D9D9"/>
<path d="M36.0751 11.6093H38.0519L37.7225 13.8497H35.7457L36.0751 11.6093Z" fill="#D9D9D9"/>
<path d="M33.2312 10.8186H35.2185L34.889 13.059H32.8958L33.2312 10.8186Z" fill="#D9D9D9"/>
<path d="M39.1721 10.8186H41.149L41.0714 11.3458L39.3698 13.059H38.8427L39.1721 10.8186Z" fill="#D9D9D9"/>
<path d="M35.1526 10.8186H36.2069L35.8774 13.059H34.8231L35.1526 10.8186Z" fill="#D9D9D9"/>
<path d="M38.1178 10.8186H39.1721L38.8427 13.059H37.7884L38.1178 10.8186Z" fill="#D9D9D9"/>
<path d="M35.4162 16.0901H37.393L37.0635 18.3305H35.0867L35.4162 16.0901Z" fill="#D9D9D9"/>
<path d="M35.0867 18.3305H37.0635L36.7341 20.5709H34.7573L35.0867 18.3305Z" fill="#D9D9D9"/>
<path d="M34.7573 20.5709H36.7341L36.7301 20.5976C36.5292 21.9639 35.6034 23.1139 34.3115 23.602L34.7573 20.5709Z" fill="#D9D9D9"/>
<path fill-rule="evenodd" clip-rule="evenodd" d="M36.2688 10.2914L36.3851 9.50072H38.3619L38.2457 10.2914H36.2688Z" fill="#D9D9D9"/>
<path fill-rule="evenodd" clip-rule="evenodd" d="M38.557 8.18286H36.5802L36.4639 8.97359H38.4407L38.557 8.18286Z" fill="#D9D9D9"/>
<path d="M44.3118 16.0901H46.2887L45.9592 18.3305H43.9824L44.3118 16.0901Z" fill="#D9D9D9"/>
<path d="M43.9824 18.3305H45.9592L45.6297 20.5709H43.6529L43.9824 18.3305Z" fill="#D9D9D9"/>
<path d="M43.1258 16.0901H44.3118L44.1374 17.2762L43.1258 16.0901Z" fill="#D9D9D9"/>
<path d="M38.052 18.3305H40.0288L39.6993 20.5709H37.7225L38.052 18.3305Z" fill="#D9D9D9"/>
<path d="M39.511 18.3305H42.0715L41.8079 20.5709H39.1721L39.511 18.3305Z" fill="#D9D9D9"/>
<path d="M41.8079 13.8497H43.7188L43.3893 16.0901H41.4784L41.8079 13.8497Z" fill="#D9D9D9"/>
<path d="M42.7535 17.2762H44.3349L44.1799 18.3305H41.5443L42.7535 17.2762Z" fill="#D9D9D9"/>
<path d="M44.1799 18.3305H41.5443L41.6761 18.66H43.6859L44.1799 18.3305Z" fill="#D9D9D9"/>
<path fill-rule="evenodd" clip-rule="evenodd" d="M43.9989 18.66V18.0669L41.8079 18.66L41.8079 20.5709L43.9989 18.66Z" fill="#D9D9D9"/>
<path d="M44.6413 13.8497H46.6181L46.2887 16.0901H44.3118L44.6413 13.8497Z" fill="#D9D9D9"/>
<path d="M44.0153 14.1792L45.9263 16.4196H44.0812L44.0153 14.1792Z" fill="#D9D9D9"/>
<path d="M43.0831 13.8497H43.7343L44.9708 15.2994H43.1258L43.0831 13.8497Z" fill="#D9D9D9"/>
<path fill-rule="evenodd" clip-rule="evenodd" d="M44.7731 16.0901L44.1965 14.7063H42.6645V15.5425L44.3119 17.4739H44.7731V16.0901Z" fill="#D9D9D9"/>
<path d="M41.1819 13.8497L40.3582 16.0901L40.1838 17.2762H38.207L38.3386 16.3812L41.1819 13.8497Z" fill="#D9D9D9"/>
<path d="M41.1916 13.8497H42.773L42.4436 16.0901H40.335L40.5869 14.3769L41.1916 13.8497Z" fill="#D9D9D9"/>
<path d="M40.335 16.0901L41.5211 16.0901L40.1606 17.2762L40.335 16.0901Z" fill="#D9D9D9"/>
<path d="M51.033 18.3305H53.0098L52.6804 20.5709H50.7035L51.033 18.3305Z" fill="#D9D9D9"/>
<path d="M52.878 18.3305H54.8549L54.7386 19.1212L53.0757 20.5709H52.5486L52.878 18.3305Z" fill="#D9D9D9"/>
<path d="M50.1105 13.8497H51.6919L51.3625 16.0901H49.2539L49.5058 14.3769L50.1105 13.8497Z" fill="#D9D9D9"/>
<path d="M47.6065 13.8497H49.5833L49.2539 16.0901H47.2771L47.6065 13.8497Z" fill="#D9D9D9"/>
<path d="M47.2771 16.0901H49.2539L48.9244 18.3305H46.9476L47.2771 16.0901Z" fill="#D9D9D9"/>
<path d="M53.2075 16.0901H55.1843L54.8549 18.3305H52.878L53.2075 16.0901Z" fill="#D9D9D9"/>
<path d="M53.2734 13.8497L55.1843 16.0901L53.3393 16.0901L53.2734 13.8497Z" fill="#D9D9D9"/>
<path d="M53.2734 13.8497L55.1843 16.0901L53.3393 16.0901L53.2734 13.8497Z" fill="#D9D9D9"/>
<path d="M50.1434 17.2762L52.0544 19.5166H50.2093L50.1434 17.2762Z" fill="#D9D9D9"/>
<path d="M51.6919 13.8497H53.2734L53.6106 14.2451L53.3393 16.0901H51.3625L51.6919 13.8497Z" fill="#D9D9D9"/>
<path d="M52.6804 16.0901H53.2075L53.13 16.6173L52.6804 16.0901Z" fill="#D9D9D9"/>
<path d="M49.2539 16.0901L50.44 16.0901L49.0795 17.2762L49.2539 16.0901Z" fill="#D9D9D9"/>
<path d="M50.1105 13.8497H51.6919L51.3625 16.0901H49.2539L49.5058 14.3769L50.1105 13.8497Z" fill="#D9D9D9"/>
<path d="M49.2539 16.0901L50.44 16.0901L49.0795 17.2762L49.2539 16.0901Z" fill="#D9D9D9"/>
<path d="M47.936 11.6093H49.9128L49.5833 13.8497H47.6065L47.936 11.6093Z" fill="#D9D9D9"/>
<path d="M46.9476 18.3305H48.9244L48.5949 20.5709H46.6181L46.9476 18.3305Z" fill="#D9D9D9"/>
<path fill-rule="evenodd" clip-rule="evenodd" d="M50.0291 10.8186H48.0523L47.936 11.6093H49.9128L50.0291 10.8186Z" fill="#D9D9D9"/>
<path d="M49.0562 17.2762H50.1434L50.1591 17.8033H48.9903L49.0562 17.2762Z" fill="#D9D9D9"/>
<path fill-rule="evenodd" clip-rule="evenodd" d="M50.9012 19.1871L50.3246 17.8034H48.7926V18.6395L50.44 20.5709H50.9012V19.1871Z" fill="#D9D9D9"/>
<path d="M63.7559 20.5511L64.0606 18.6279H60.0332L60.3644 16.5466H63.9281L64.2196 14.7287H60.6559L60.9739 12.7265H65.0012L65.3059 10.8032H59.2119L57.6619 20.5511H63.7559Z" fill="#D9D9D9"/>
<path d="M67.2368 20.5511L67.8065 16.9944C67.9655 15.9801 68.3761 15.5323 69.1445 15.5323C69.8069 15.5323 70.1779 16.0592 70.0586 16.7969L69.4625 20.5511H71.4364L72.0061 16.9944C72.1651 15.9801 72.5757 15.5191 73.3309 15.5191C74.0198 15.5191 74.3907 16.0328 74.2715 16.7969L73.6753 20.5511H75.6493L76.3249 16.2568C76.5501 14.8473 75.583 13.7671 74.0993 13.7671C73.1852 13.7671 72.377 14.2018 71.9266 14.8868C71.6351 14.1623 71.0257 13.7671 70.1514 13.7671C69.3697 13.7671 68.6146 14.1096 68.1642 14.676L68.1509 13.9647H66.3095L65.2629 20.5511H67.2368Z" fill="#D9D9D9"/>
<path d="M79.0746 20.5511L79.6443 16.9944C79.8032 15.9801 80.2139 15.5323 80.9823 15.5323C81.6447 15.5323 82.0156 16.0592 81.8964 16.7969L81.3002 20.5511H83.2742L83.8439 16.9944C84.0028 15.9801 84.4135 15.5191 85.1686 15.5191C85.8575 15.5191 86.2285 16.0328 86.1093 16.7969L85.5131 20.5511H87.487L88.1627 16.2568C88.3879 14.8473 87.4208 13.7671 85.937 13.7671C85.0229 13.7671 84.2148 14.2018 83.7644 14.8868C83.4729 14.1623 82.8635 13.7671 81.9891 13.7671C81.2075 13.7671 80.4524 14.1096 80.0019 14.676L79.9887 13.9647H78.1472L77.1006 20.5511H79.0746Z" fill="#D9D9D9"/>
<path d="M92.1709 20.7092C93.7342 20.7092 95.112 19.7476 95.5624 18.3381H93.6282C93.3765 18.8255 92.8996 19.1021 92.2769 19.1021C91.429 19.1021 91.0051 18.6674 90.9521 17.7848L95.6286 17.7585L95.7081 17.2447C96.0393 15.1371 94.9 13.7803 92.8466 13.7803C90.7004 13.7803 89.0709 15.4927 89.0709 17.7585C89.0709 19.629 90.2102 20.7092 92.1709 20.7092ZM92.7273 15.3742C93.5355 15.3742 93.9726 15.8352 93.8534 16.5597H91.1508C91.4423 15.8484 92.0252 15.3742 92.7273 15.3742Z" fill="#D9D9D9"/>
<path d="M98.8964 20.5511L99.6781 15.5981H100.91L101.175 13.9647H99.943L100.261 11.9361H98.287L97.9691 13.9647H96.737L96.472 15.5981H97.7041L96.9225 20.5511H98.8964Z" fill="#D9D9D9"/>
<defs>
<clipPath id="clip0_1580_2398">
<rect width="30.9563" height="30.9563" fill="white" transform="translate(0.701416 0.278015)"/>
</clipPath>
</defs>
</svg>
