<svg width="40" height="40" viewBox="0 0 40 40" fill="none" xmlns="http://www.w3.org/2000/svg">
<rect width="40" height="40" rx="4" fill="#F4F4F4"/>
<path fill-rule="evenodd" clip-rule="evenodd" d="M4 0C1.79086 0 0 1.79086 0 4V36C0 38.2091 1.79086 40 4 40H36C38.2091 40 40 38.2091 40 36V4C40 1.79086 38.2091 0 36 0H4ZM18.1107 11.6992C18.7637 9.79004 19.6657 8.43978 20.4681 8.16862C20.7005 8.08561 21.0934 8.11882 21.3424 8.23503C22.1227 8.6058 22.9362 9.87858 23.556 11.6992C23.7441 12.236 24.209 13.9515 24.209 14.0898C24.209 14.112 22.6927 14.1341 20.8333 14.1341C18.9795 14.1341 17.4577 14.112 17.4577 14.0898C17.4577 13.9515 17.9225 12.236 18.1107 11.6992ZM17.098 8.70541C15.3437 9.29753 13.9049 10.1719 12.5658 11.4779C11.8298 12.1917 11.3206 12.806 10.8226 13.5807L10.485 14.1065L13.097 14.1231C14.5303 14.1286 15.7256 14.1175 15.7422 14.0954C15.7643 14.0677 15.8252 13.8408 15.8805 13.5807C16.2402 11.8486 16.8434 10.1165 17.4909 8.9821C17.6292 8.73861 17.7344 8.52833 17.7233 8.51726C17.7122 8.50619 17.43 8.59473 17.098 8.70541ZM24.1758 8.97657C24.043 8.73861 23.9323 8.53939 23.9323 8.52279C23.9323 8.47299 24.8232 8.77181 25.4098 9.02084C27.6234 9.94499 29.5326 11.5498 30.8441 13.5807L31.1816 14.1065L28.5697 14.1231C27.1364 14.1286 25.9411 14.1175 25.9245 14.0954C25.9023 14.0677 25.8581 13.9017 25.8193 13.7191C25.4486 11.915 24.8343 10.1442 24.1758 8.97657ZM7.13704 15.9216C6.99316 15.999 6.87142 16.1263 6.79394 16.2923L6.66667 16.5358V20V23.4642L6.79394 23.7077C6.87142 23.8737 6.99316 24.001 7.13704 24.0785L7.3584 24.2057H20.8333H34.3083L34.5296 24.0785C34.6735 24.001 34.7952 23.8737 34.8727 23.7077L35 23.4642V20V16.5358L34.8783 16.2923C34.7952 16.1263 34.6735 15.999 34.5296 15.9216L34.3083 15.7943H20.8333H7.3584L7.13704 15.9216ZM21.3148 17.8529C21.4531 17.9359 21.5693 18.113 21.835 18.6774C22.0286 19.0703 22.1947 19.3913 22.2113 19.3913C22.2279 19.3913 22.3551 19.1257 22.4935 18.7992C22.7702 18.1296 22.9583 17.8805 23.2516 17.7809C23.7773 17.6094 24.3197 18.0078 24.3197 18.5667C24.3197 18.8047 23.0137 21.8483 22.82 22.0531C22.5488 22.3464 22.0452 22.3685 21.7077 22.1084C21.6302 22.0475 21.4144 21.6712 21.2207 21.2507C21.0215 20.8356 20.8499 20.498 20.8333 20.498C20.8167 20.498 20.6396 20.8245 20.446 21.2174C20.2467 21.6159 20.0199 22.0033 19.9424 22.0807C19.6491 22.363 19.1234 22.3519 18.8356 22.0641C18.6253 21.8594 17.347 18.8434 17.347 18.5612C17.347 18.2845 17.5186 18.0023 17.7676 17.8584C18.0166 17.7145 18.2158 17.6979 18.4704 17.8086C18.7471 17.9248 18.8743 18.1019 19.1455 18.7549C19.2894 19.0924 19.4222 19.3802 19.4443 19.4079C19.4665 19.43 19.638 19.1257 19.8317 18.7327C20.2025 17.958 20.2744 17.8695 20.5954 17.7533C20.8389 17.6702 21.0602 17.6979 21.3148 17.8529ZM29.8812 17.8639C29.9919 17.9525 30.1579 18.2181 30.3682 18.6387C30.5397 18.9984 30.6836 19.3083 30.6836 19.3415C30.6836 19.513 30.8164 19.3083 31.0654 18.7327C31.2259 18.373 31.4085 18.0244 31.4749 17.9635C31.8568 17.6094 32.4157 17.6758 32.7422 18.124C32.9635 18.4229 32.9137 18.6387 32.2054 20.2767C31.8457 21.1123 31.5026 21.8649 31.4417 21.9535C31.2812 22.1859 31.0433 22.2855 30.7002 22.2578C30.2907 22.2246 30.1523 22.0752 29.7373 21.1842L29.3887 20.4427L28.9792 21.2396C28.6582 21.8815 28.5365 22.0641 28.387 22.1582C28.0384 22.374 27.485 22.2799 27.2858 21.9756C27.236 21.9092 26.9095 21.1676 26.5553 20.332C25.8415 18.6663 25.7861 18.4395 26.013 18.1351C26.2288 17.8473 26.4779 17.7201 26.7656 17.7477C27.2028 17.7865 27.3522 17.9469 27.6953 18.7549L27.9886 19.4521L28.3815 18.6885C28.7467 17.9801 28.791 17.9137 29.0234 17.7975C29.3223 17.6426 29.6211 17.6702 29.8812 17.8639ZM9.97038 17.8363C10.2526 17.9691 10.3024 18.0466 10.6234 18.8102C10.7617 19.1423 10.889 19.4245 10.9001 19.4355C10.9111 19.4466 11.0827 19.1367 11.2764 18.7493C11.7135 17.875 11.8132 17.7754 12.2448 17.7422C12.7484 17.709 12.8701 17.8252 13.3073 18.7217L13.6725 19.4632L13.9105 18.8877C14.237 18.113 14.3311 17.9691 14.5967 17.8363C14.973 17.6426 15.3659 17.7533 15.6536 18.1406C15.8861 18.445 15.8252 18.6663 15.0892 20.3542C14.6852 21.2839 14.3587 21.9645 14.2646 22.0586C13.9492 22.3906 13.4069 22.374 13.1025 22.0309C13.0195 21.9313 12.7982 21.5329 12.6156 21.14L12.2891 20.4316L11.9128 21.1953C11.5088 22.0199 11.3815 22.1748 11.0384 22.2744C10.8558 22.3298 10.7783 22.3242 10.568 22.2467C10.4352 22.1914 10.2747 22.0807 10.2139 22.0033C10.0866 21.8206 8.88021 18.9984 8.82487 18.7383C8.74186 18.3841 8.95768 17.9525 9.28971 17.8086C9.52213 17.709 9.69922 17.7145 9.97038 17.8363ZM12.5658 28.5221C11.7467 27.7253 11.1491 26.9837 10.6012 26.0706L10.474 25.8659L13.1191 25.877L15.7643 25.8936L15.8363 26.2533C16.2458 28.1624 16.8545 29.9167 17.502 31.04C17.6403 31.2891 17.6956 31.4329 17.6569 31.444C17.5518 31.4661 16.6055 31.1397 15.9635 30.8519C14.7184 30.2985 13.6117 29.5404 12.5658 28.5221ZM17.4577 25.9102C17.4577 25.9323 17.5573 26.3363 17.6735 26.8066C18.3542 29.5016 19.3171 31.2835 20.3574 31.765C20.7116 31.931 20.9551 31.931 21.3092 31.765C22.3441 31.2835 23.3125 29.4961 23.9932 26.8066C24.1094 26.3363 24.209 25.9323 24.209 25.9102C24.209 25.888 22.6927 25.8659 20.8333 25.8659C18.9795 25.8659 17.4577 25.888 17.4577 25.9102ZM25.7939 26.3951C25.8454 26.1587 25.8878 25.964 25.8968 25.9323C25.9134 25.8825 26.4945 25.8659 28.5586 25.8659H31.1927L31.0654 26.0706C30.1413 27.6035 28.8242 28.9759 27.3633 29.9388C26.6771 30.387 26.1403 30.6748 25.4098 30.9792C24.8011 31.2337 24.0706 31.4772 23.9876 31.444C23.9655 31.4329 24.043 31.2503 24.1647 31.04C24.79 29.9609 25.3766 28.2952 25.7585 26.5576C25.7705 26.5023 25.7824 26.4477 25.7939 26.3951Z" fill="#393939"/>
</svg>
